REM DIRINDEX 1\2\6,1\2\7,1\2\8,1\2\9,1\3\10,1\3\11,1\4\12,1\4\13,1\4\14,1\5\15,1\5\16,1\5\17
REM DIRNAME folder01,folder02,folder03,folder04,folder05,folder06,folder07,folder08,folder09,folder10,folder11,folder12,folder13,folder14,folder15,folder16,folder17
TITLE ""
FILE "1900_3_050 sec09_0817_0832.mp3" MP3
  TRACK 01 AUDIO
    TITLE "0:"
    INDEX 01 00:00:00
  TRACK 02 AUDIO
    TITLE "17:cjc020_7609"
    INDEX 01 00:00:17
  TRACK 03 AUDIO
    TITLE "0:"
    INDEX 01 00:01:42
  TRACK 04 AUDIO
    TITLE "16:cjc020_7610"
    INDEX 01 00:01:46
  TRACK 05 AUDIO
    TITLE "0:"
    INDEX 01 00:02:55
  TRACK 06 AUDIO
    TITLE "17:cjc020_7611"
    INDEX 01 00:03:39
  TRACK 07 AUDIO
    TITLE "0:"
    INDEX 01 00:04:72
  TRACK 08 AUDIO
    TITLE "16:cjc020_7612"
    INDEX 01 00:05:03
  TRACK 09 AUDIO
    TITLE "0:"
    INDEX 01 00:06:14
  TRACK 10 AUDIO
    TITLE "17:cjc020_7613"
    INDEX 01 00:06:69
  TRACK 11 AUDIO
    TITLE "0:"
    INDEX 01 00:07:68
  TRACK 12 AUDIO
    TITLE "16:cjc020_7614"
    INDEX 01 00:07:70
  TRACK 13 AUDIO
    TITLE "0:"
    INDEX 01 00:08:72
  TRACK 14 AUDIO
    TITLE "17:cjc020_7615"
    INDEX 01 00:09:53
  TRACK 15 AUDIO
    TITLE "0:"
    INDEX 01 00:10:45
  TRACK 16 AUDIO
    TITLE "16:cjc020_7616"
    INDEX 01 00:10:49
  TRACK 17 AUDIO
    TITLE "0:"
    INDEX 01 00:11:68
  TRACK 18 AUDIO
    TITLE "17:cjc020_7617"
    INDEX 01 00:12:48
  TRACK 19 AUDIO
    TITLE "0:"
    INDEX 01 00:13:67
  TRACK 20 AUDIO
    TITLE "16:cjc020_7618"
    INDEX 01 00:13:71
  TRACK 21 AUDIO
    TITLE "0:"
    INDEX 01 00:14:72
  TRACK 22 AUDIO
    TITLE "17:cjc020_7619"
    INDEX 01 00:15:54
  TRACK 23 AUDIO
    TITLE "0:"
    INDEX 01 00:17:08
  TRACK 24 AUDIO
    TITLE "16:cjc020_7620"
    INDEX 01 00:17:12
  TRACK 25 AUDIO
    TITLE "0:"
    INDEX 01 00:18:25
  TRACK 26 AUDIO
    TITLE "17:cjc020_7621"
    INDEX 01 00:19:09
  TRACK 27 AUDIO
    TITLE "0:"
    INDEX 01 00:20:24
  TRACK 28 AUDIO
    TITLE "16:cjc020_7622"
    INDEX 01 00:20:28
  TRACK 29 AUDIO
    TITLE "0:"
    INDEX 01 00:21:39
  TRACK 30 AUDIO
    TITLE "17:cjc020_7623"
    INDEX 01 00:22:21
  TRACK 31 AUDIO
    TITLE "0:"
    INDEX 01 00:23:26
  TRACK 32 AUDIO
    TITLE "16:cjc020_7624"
    INDEX 01 00:23:30
  TRACK 33 AUDIO
    TITLE "0:"
    INDEX 01 00:24:33
  TRACK 34 AUDIO
    TITLE "17:cjc020_7625"
    INDEX 01 00:25:17
  TRACK 35 AUDIO
    TITLE "0:"
    INDEX 01 00:26:40
  TRACK 36 AUDIO
    TITLE "16:cjc020_7626"
    INDEX 01 00:26:44
  TRACK 37 AUDIO
    TITLE "0:"
    INDEX 01 00:27:61
  TRACK 38 AUDIO
    TITLE "17:cjc020_7627"
    INDEX 01 00:28:45
  TRACK 39 AUDIO
    TITLE "0:"
    INDEX 01 00:29:62
  TRACK 40 AUDIO
    TITLE "16:cjc020_7628"
    INDEX 01 00:29:66
  TRACK 41 AUDIO
    TITLE "0:"
    INDEX 01 00:30:67
  TRACK 42 AUDIO
    TITLE "17:cjc020_7629"
    INDEX 01 00:31:49
  TRACK 43 AUDIO
    TITLE "0:"
    INDEX 01 00:32:43
  TRACK 44 AUDIO
    TITLE "16:cjc020_7630"
    INDEX 01 00:32:48
  TRACK 45 AUDIO
    TITLE "0:"
    INDEX 01 00:33:46
  TRACK 46 AUDIO
    TITLE "17:cjc020_7631"
    INDEX 01 00:34:28
  TRACK 47 AUDIO
    TITLE "0:"
    INDEX 01 00:35:41
  TRACK 48 AUDIO
    TITLE "16:cjc020_7632"
    INDEX 01 00:35:45
  TRACK 49 AUDIO
    TITLE "0:"
    INDEX 01 00:36:33
  TRACK 50 AUDIO
    TITLE "17:cjc020_7633"
    INDEX 01 00:37:18
  TRACK 51 AUDIO
    TITLE "0:"
    INDEX 01 00:38:04
  TRACK 52 AUDIO
    TITLE "16:cjc020_7634"
    INDEX 01 00:38:06
  TRACK 53 AUDIO
    TITLE "0:"
    INDEX 01 00:39:05
  TRACK 54 AUDIO
    TITLE "17:cjc020_7635"
    INDEX 01 00:39:64
  TRACK 55 AUDIO
    TITLE "0:"
    INDEX 01 00:40:60
  TRACK 56 AUDIO
    TITLE "16:cjc020_7636"
    INDEX 01 00:40:64
  TRACK 57 AUDIO
    TITLE "0:"
    INDEX 01 00:41:63
  TRACK 58 AUDIO
    TITLE "17:cjc020_7637"
    INDEX 01 00:42:49
  TRACK 59 AUDIO
    TITLE "0:"
    INDEX 01 00:43:74
  TRACK 60 AUDIO
    TITLE "16:cjc020_7638"
    INDEX 01 00:44:03
  TRACK 61 AUDIO
    TITLE "0:"
    INDEX 01 00:44:71
  TRACK 62 AUDIO
    TITLE "17:cjc020_7639"
    INDEX 01 00:45:57
  TRACK 63 AUDIO
    TITLE "0:"
    INDEX 01 00:47:09
  TRACK 64 AUDIO
    TITLE "16:cjc020_7640"
    INDEX 01 00:47:13
  TRACK 65 AUDIO
    TITLE "0:"
    INDEX 01 00:48:34
